<svg width="248" height="247" viewBox="0 0 248 247" fill="none" xmlns="http://www.w3.org/2000/svg">
<path d="M26.9179 0H124.122V36.7787C124.122 38.586 124.267 40.4189 124.96 42.0881C125.529 43.4592 126.238 44.5678 127.141 45.5355C130.803 49.4608 136.92 49.1174 142.164 47.973C153.094 45.5882 159.509 46.6666 163.004 56.759C164.275 60.4292 164.039 64.5554 162.102 67.9217C157.603 75.7391 150.965 76.232 139.749 74.0255C136.028 73.2936 131.971 72.9744 128.75 74.9744C126.446 76.4049 125.152 78.3732 124.419 81.7127C124.183 82.7884 124.122 83.8945 124.122 84.9958V122H85.4874C83.014 122 80.4252 121.795 78.3852 120.397C75.423 118.366 75.1504 115.422 76.2675 109.951C79.8742 95.4912 77.8844 89.2136 67.5707 85.2544C63.5848 83.7243 59.0838 83.9218 55.2452 85.7909C47.2286 89.6944 44.6646 94.7874 47.2758 105.949C47.8987 108.611 48.3545 111.374 47.8071 114.053C46.8555 118.709 44.9355 120.519 41.4129 121.527C40.0778 121.909 38.6809 122 37.2923 122H0V32.6337C0 0 0 0 26.9179 0Z" fill="#73BDA7"/>
<path d="M0 220.41L0 124.392H37.3531C39.1113 124.392 40.8909 124.252 42.5263 123.606C43.8739 123.074 44.9738 122.416 45.9347 121.587C50.1057 117.985 49.7165 111.634 48.562 106.245C46.2728 95.5594 47.644 89.2973 58.0666 85.8965C61.6596 84.7241 65.657 84.9419 68.9702 86.7602C77.019 91.1774 77.4883 97.6965 75.25 108.734C74.4754 112.554 74.123 116.726 76.1262 120.069C77.4041 122.202 79.1688 123.415 82.4141 124.11C83.4611 124.334 84.5375 124.392 85.6083 124.392L124 124.392L124 162.408C124 164.948 123.792 167.622 122.296 169.674C120.235 172.503 117.248 172.753 111.753 171.663C97.168 168.127 90.7733 170.036 86.7439 180.023C85.1024 184.092 85.3129 188.737 87.3068 192.645C91.28 200.432 96.497 202.881 107.854 200.262C110.446 199.664 113.133 199.243 115.746 199.742C120.573 200.662 122.454 202.541 123.496 206.013C123.906 207.381 124 208.819 124 210.247V247H33.1687C0 247 0 247 0 220.41Z" fill="#E48167"/>
<path d="M221.574 247H126.149V210.677C126.149 208.915 125.987 207.143 125.409 205.479C124.884 203.965 124.245 202.657 123.413 201.489C120.223 197.007 113.859 197.247 108.478 198.391C97.6843 200.685 90.9868 199.39 87.4751 189.1C86.2522 185.517 86.4658 181.495 88.3105 178.188C92.5043 170.671 98.3644 171.201 109.07 173.672C112.86 174.547 116.993 174.765 120.295 172.708C123.03 171.004 124.858 168.633 125.707 165.044C125.947 164.027 126.002 162.975 126.006 161.93L126.149 124H163.913C166.448 124 169.119 124.205 171.166 125.701C173.964 127.745 174.209 130.707 173.128 136.148C169.617 150.602 171.507 156.947 181.408 160.944C185.469 162.584 190.108 162.374 194.008 160.383C201.716 156.448 204.145 151.28 201.56 140.054C200.961 137.457 200.536 134.764 201.041 132.148C201.958 127.393 203.822 125.534 207.257 124.503C208.622 124.093 210.058 124 211.483 124H248V214.099C248 247 248 247 221.574 247Z" fill="#F0D08F"/>
<path d="M248 26.3384L248 121.753H211.746C209.922 121.753 208.071 121.899 206.399 122.628C204.872 123.294 203.618 124.162 202.518 125.268C198.761 129.04 198.991 134.984 200.102 140.19C202.398 150.954 201.203 157.073 191.291 160.491C187.587 161.768 183.426 161.538 180.025 159.591C172.687 155.389 172.835 149.637 175.159 138.781C175.945 135.106 176.119 131.173 174.446 127.807C173.022 124.942 171.061 122.995 167.636 122.089C166.562 121.805 165.442 121.753 164.331 121.753H126V84.7074C126 82.2551 126.186 79.6575 127.71 77.7359C130.117 74.7002 133.932 74.4119 139.39 75.5366C153.688 79.1359 159.887 77.1445 163.797 66.8347C165.298 62.8776 165.105 58.4205 163.269 54.6072C159.421 46.6127 154.407 44.0403 143.426 46.6146C140.74 47.2442 137.958 47.6906 135.249 47.17C130.313 46.2214 127.743 44.2994 126.521 40.7631C126.072 39.4623 126 38.0695 126 36.6933V0L215.764 0C248 0 248 0 248 26.3384Z" fill="#2F4E5B"/>
</svg>
